<mxfile host="65bd71144e">
    <diagram id="hpiwRGb-agkFqXvQGM38" name="第 1 页">
        <mxGraphModel dx="714" dy="330" grid="1" gridSize="10" guides="1" tooltips="1" connect="1" arrows="1" fold="1" page="1" pageScale="1" pageWidth="827" pageHeight="1169" math="0" shadow="0">
            <root>
                <mxCell id="0"/>
                <mxCell id="1" parent="0"/>
                <mxCell id="3" value="" style="rounded=0;whiteSpace=wrap;html=1;" vertex="1" parent="1">
                    <mxGeometry x="70" y="200" width="190" height="250" as="geometry"/>
                </mxCell>
                <mxCell id="4" value="GEC(global exection context)" style="text;html=1;strokeColor=none;fillColor=none;align=center;verticalAlign=middle;whiteSpace=wrap;rounded=0;" vertex="1" parent="1">
                    <mxGeometry x="40" y="310" width="250" height="30" as="geometry"/>
                </mxCell>
                <mxCell id="5" value="" style="rounded=0;whiteSpace=wrap;html=1;" vertex="1" parent="1">
                    <mxGeometry x="90" y="340" width="150" height="80" as="geometry"/>
                </mxCell>
                <mxCell id="8" value="VO(variable Object):GO" style="rounded=0;whiteSpace=wrap;html=1;" vertex="1" parent="1">
                    <mxGeometry x="90" y="340" width="150" height="40" as="geometry"/>
                </mxCell>
                <mxCell id="9" value="开始执行代码&lt;br&gt;var name = &quot;why&quot;" style="rounded=0;whiteSpace=wrap;html=1;" vertex="1" parent="1">
                    <mxGeometry x="90" y="380" width="150" height="40" as="geometry"/>
                </mxCell>
                <mxCell id="10" value="ECStack" style="text;html=1;strokeColor=none;fillColor=none;align=center;verticalAlign=middle;whiteSpace=wrap;rounded=0;" vertex="1" parent="1">
                    <mxGeometry x="145" y="170" width="40" height="20" as="geometry"/>
                </mxCell>
                <mxCell id="11" value="{&lt;br&gt;name:undfined,&lt;br&gt;foo:&lt;br&gt;}" style="rounded=1;whiteSpace=wrap;html=1;" vertex="1" parent="1">
                    <mxGeometry x="445" y="200" width="150" height="80" as="geometry"/>
                </mxCell>
                <mxCell id="12" value="Global Object" style="text;html=1;strokeColor=none;fillColor=none;align=center;verticalAlign=middle;whiteSpace=wrap;rounded=0;" vertex="1" parent="1">
                    <mxGeometry x="430" y="170" width="140" height="20" as="geometry"/>
                </mxCell>
                <mxCell id="13" value="[[scope]]:parent scope" style="rounded=1;whiteSpace=wrap;html=1;" vertex="1" parent="1">
                    <mxGeometry x="445" y="360" width="140" height="60" as="geometry"/>
                </mxCell>
                <mxCell id="14" value="存储函数（foo）" style="text;html=1;strokeColor=none;fillColor=none;align=center;verticalAlign=middle;whiteSpace=wrap;rounded=0;" vertex="1" parent="1">
                    <mxGeometry x="452" y="340" width="100" height="10" as="geometry"/>
                </mxCell>
            </root>
        </mxGraphModel>
    </diagram>
</mxfile>